<?xml version="1.0" encoding="utf-8"?>
<!-- Generator: Adobe Illustrator 26.0.1, SVG Export Plug-In . SVG Version: 6.00 Build 0)  -->
<svg version="1.1" id="Layer_1" xmlns="http://www.w3.org/2000/svg" xmlns:xlink="http://www.w3.org/1999/xlink" x="0px" y="0px"
	 viewBox="0 0 1080 1080" style="enable-background:new 0 0 1080 1080;" xml:space="preserve">
<style type="text/css">
	.st0{fill:#342826;stroke:#000000;stroke-miterlimit:10;}
	.st1{fill:#00FFFF;}
</style>
<g>
	<rect y="0" class="st0" width="1080" height="1080"/>
	<g>
		<g>
			<path class="st1" d="M549.35,610.71h-78.81c-48.17-48.17-96.33-96.34-144.5-144.5c46.11-46.11,92.23-92.22,138.34-138.34h78.8
				c-46.11,46.12-92.22,92.23-138.34,138.34C453.02,514.37,501.19,562.54,549.35,610.71z"/>
			<path class="st1" d="M420.82,610.71h-56.8c-48.17-48.17-96.33-96.34-144.5-144.5c46.11-46.11,92.23-92.22,138.34-138.34h56.8
				c-46.11,46.12-92.22,92.23-138.34,138.34C324.49,514.37,372.66,562.54,420.82,610.71z"/>
		</g>
		<g>
			<path class="st1" d="M575.37,469.29h78.81c48.17,48.17,96.33,96.34,144.5,144.5c-46.11,46.11-92.23,92.22-138.34,138.34h-78.8
				c46.11-46.12,92.22-92.23,138.34-138.34C671.7,565.63,623.54,517.46,575.37,469.29z"/>
			<path class="st1" d="M703.9,469.29h56.8c48.17,48.17,96.33,96.34,144.5,144.5c-46.11,46.11-92.23,92.22-138.34,138.34h-56.8
				c46.11-46.12,92.22-92.23,138.34-138.34C800.24,565.63,752.07,517.46,703.9,469.29z"/>
		</g>
	</g>
</g>
</svg>
